<?xml version="1.0" encoding="UTF-8" standalone="no"?>
<svg
   xmlns:dc="http://purl.org/dc/elements/1.1/"
   xmlns:cc="http://creativecommons.org/ns#"
   xmlns:rdf="http://www.w3.org/1999/02/22-rdf-syntax-ns#"
   xmlns:svg="http://www.w3.org/2000/svg"
   xmlns="http://www.w3.org/2000/svg"
   xmlns:sodipodi="http://sodipodi.sourceforge.net/DTD/sodipodi-0.dtd"
   xmlns:inkscape="http://www.inkscape.org/namespaces/inkscape"
   xml:space="preserve"
   height="34"
   viewBox="0 0 62.001102 34"
   width="62"
   version="1.1"
   y="0px"
   x="0px"
   enable-background="new 0 0 595.275 311.111"
   id="svg4"
   sodipodi:docname="logo2.svg"
   inkscape:version="0.92.1 r15371"><metadata
     id="metadata10"><rdf:RDF><cc:Work
         rdf:about=""><dc:format>image/svg+xml</dc:format><dc:type
           rdf:resource="http://purl.org/dc/dcmitype/StillImage" /><dc:title></dc:title></cc:Work></rdf:RDF></metadata><defs
     id="defs8" /><sodipodi:namedview
     pagecolor="#ffffff"
     bordercolor="#666666"
     borderopacity="1"
     objecttolerance="10"
     gridtolerance="10"
     guidetolerance="10"
     inkscape:pageopacity="0"
     inkscape:pageshadow="2"
     inkscape:window-width="1920"
     inkscape:window-height="1017"
     id="namedview6"
     showgrid="false"
     inkscape:zoom="5.6451613"
     inkscape:cx="31.01944"
     inkscape:cy="17.005585"
     inkscape:window-x="-8"
     inkscape:window-y="-8"
     inkscape:window-maximized="1"
     inkscape:current-layer="svg4" /><path
     style="color:#000000;text-indent:0;text-transform:none;fill:#ffffff;stroke-width:0.88204318;enable-background:accumulate"
     d="m 29.094493,4.9167026 c -3.282612,0 -5.934827,2.6520393 -5.934827,5.9348274 0,1.353143 0.450583,2.598499 1.210163,3.595738 1.647921,-1.907419 4.080244,-3.118641 6.795878,-3.118641 1.328622,0 2.588444,0.295855 3.723722,0.814541 0.09192,-0.415672 0.139645,-0.847926 0.139645,-1.291664 0,-3.2826122 -2.652039,-5.9348279 -5.934828,-5.9348279 z M 21.34398,7.6628559 c -1.709488,0 -3.083712,1.3858663 -3.083712,3.0953541 0,0.553491 0.142794,1.076446 0.395641,1.524435 1.031549,-0.581936 2.22416,-0.919265 3.491039,-0.919265 0.122251,0 0.240004,0.0044 0.360738,0.01176 -0.01367,-0.173295 -0.02326,-0.346864 -0.02326,-0.523652 0,-0.9521652 0.206804,-1.8580235 0.570206,-2.6763832 C 22.565345,7.8470089 21.979157,7.6631117 21.343997,7.6631117 Z m 14.639271,2.1295169 c -0.1263,0 -0.248031,0.015436 -0.372381,0.023224 0.0538,0.3391282 0.09308,0.6815372 0.09308,1.0356952 0,0.551065 -0.07004,1.082884 -0.197825,1.594205 1.497621,0.828777 2.74139,2.06892 3.560809,3.572451 0.849936,-0.442503 1.798045,-0.723831 2.804368,-0.791298 C 41.611946,12.1851 39.09216,9.7923814 35.983222,9.7923814 Z m -4.817544,2.2109292 c -4.593328,0 -8.308582,3.714902 -8.308582,8.308583 0,4.593328 3.714901,8.308582 8.308582,8.308582 4.593681,0 8.308583,-3.715254 8.308583,-8.308582 0,-4.593681 -3.715255,-8.308583 -8.308583,-8.308583 z m -9.01801,0.03484 c -3.563542,0 -6.446765,2.883046 -6.446765,6.446765 0,2.097852 0.999531,3.954906 2.548399,5.131728 0.652977,-1.25947 1.964487,-2.117874 3.479308,-2.117874 0.183085,0 0.358824,0.0222 0.535294,0.04661 -0.05539,-0.403023 -0.08146,-0.81529 -0.08146,-1.233537 0,-1.999239 0.650772,-3.848002 1.757119,-5.341213 -0.662274,-0.828697 -1.13616,-1.824418 -1.338236,-2.909155 -0.149718,-0.01029 -0.301456,-0.02322 -0.45382,-0.02322 z m 20.201436,3.84024 c -1.082002,0 -2.095647,0.276256 -2.990568,0.744744 0.508172,1.125664 0.791299,2.374548 0.791299,3.688793 0,2.460812 -0.989388,4.695469 -2.594971,6.318781 1.179468,1.309481 2.890808,2.129517 4.794346,2.129517 3.563543,0 6.446765,-2.883047 6.446765,-6.446766 0,-3.563542 -2.883046,-6.434946 -6.446765,-6.434946 z m -27.275422,0.849417 c -3.283053,-3.68e-4 -5.9465589,2.639867 -5.9465589,5.922656 0,3.2827 2.6635939,5.946206 5.9462059,5.946206 1.249414,0 2.40692,-0.389281 3.362966,-1.047338 -0.395085,-0.613911 -0.628394,-1.347851 -0.628394,-2.129517 0,-0.405679 0.05986,-0.795471 0.174548,-1.163592 -1.789931,-1.293604 -2.955727,-3.3986 -2.955727,-5.77165 0,-0.602955 0.07945,-1.185995 0.221102,-1.745563 -0.05879,-0.0015 -0.115327,-0.01176 -0.174557,-0.01176 z m 34.898039,5.096887 c -0.175112,0 -0.34457,0.01999 -0.51199,0.04661 0.0092,0.148024 0.01163,0.291842 0.01163,0.442203 0,1.892777 -0.746808,3.610732 -1.954961,4.887314 0.594356,0.69116 1.467367,1.12875 2.455344,1.12875 1.799545,0 3.258268,-1.44708 3.258268,-3.246624 0,-1.799545 -1.458723,-3.258268 -3.258268,-3.258268 z m -28.242141,0.349086 c -1.799456,0 -3.246625,1.447168 -3.246625,3.246625 0,1.799456 1.447169,3.258267 3.246625,3.258267 1.379339,0 2.550075,-0.860662 3.025585,-2.071302 -1.160152,-1.181585 -1.993859,-2.68882 -2.3622,-4.363556 -0.215581,-0.04454 -0.43438,-0.06983 -0.663306,-0.06983 z"
     id="path2"
     inkscape:connector-curvature="0" /></svg>